<mxfile host="Electron" modified="2024-06-27T16:19:35.451Z" agent="Mozilla/5.0 (X11; Linux x86_64) AppleWebKit/537.36 (KHTML, like Gecko) draw.io/24.6.1 Chrome/124.0.6367.207 Electron/30.0.6 Safari/537.36" etag="uqgCykuiHuJzuzqcUnpJ" version="24.6.1" type="device">
  <diagram name="Page-1" id="a6s_zDGBIFisbvg56zAi">
    <mxGraphModel dx="3056" dy="3485" grid="1" gridSize="10" guides="1" tooltips="1" connect="1" arrows="1" fold="1" page="1" pageScale="1" pageWidth="850" pageHeight="1100" math="0" shadow="0">
      <root>
        <mxCell id="0" />
        <mxCell id="1" parent="0" />
        <mxCell id="yQIeMXqNimcgNi17c58K-3" value="" style="rounded=0;whiteSpace=wrap;html=1;movable=0;" parent="1" vertex="1">
          <mxGeometry x="-320" y="-1480" width="1735.61" height="1300" as="geometry" />
        </mxCell>
        <mxCell id="c14UB3Sm8Ooux1S4nVgL-11" value="" style="edgeStyle=orthogonalEdgeStyle;rounded=0;orthogonalLoop=1;jettySize=auto;html=1;fontFamily=Helvetica;fontSize=12;fontColor=default;entryX=0;entryY=0.5;entryDx=0;entryDy=0;entryPerimeter=0;flowAnimation=1;" edge="1" parent="1" source="yQIeMXqNimcgNi17c58K-4" target="yQIeMXqNimcgNi17c58K-10">
          <mxGeometry relative="1" as="geometry" />
        </mxCell>
        <mxCell id="yQIeMXqNimcgNi17c58K-4" value="" style="dashed=0;outlineConnect=0;html=1;align=center;labelPosition=center;verticalLabelPosition=bottom;verticalAlign=top;shape=mxgraph.weblogos.chrome;movable=0;" parent="1" vertex="1">
          <mxGeometry x="-480" y="-918.7" width="74.8" height="77.7" as="geometry" />
        </mxCell>
        <mxCell id="c14UB3Sm8Ooux1S4nVgL-23" style="edgeStyle=orthogonalEdgeStyle;rounded=0;orthogonalLoop=1;jettySize=auto;html=1;exitX=0.5;exitY=1;exitDx=0;exitDy=0;entryX=0.5;entryY=0;entryDx=0;entryDy=0;fontFamily=Helvetica;fontSize=12;fontColor=default;" edge="1" parent="1" source="yQIeMXqNimcgNi17c58K-8" target="c14UB3Sm8Ooux1S4nVgL-21">
          <mxGeometry relative="1" as="geometry" />
        </mxCell>
        <mxCell id="yQIeMXqNimcgNi17c58K-8" value="" style="rounded=0;whiteSpace=wrap;html=1;strokeColor=default;dashed=1;fillColor=none;shadow=0;glass=0;movable=0;" parent="1" vertex="1">
          <mxGeometry x="-120" y="-1420" width="1430" height="1050" as="geometry" />
        </mxCell>
        <mxCell id="yQIeMXqNimcgNi17c58K-9" value="&lt;b&gt;&lt;font style=&quot;font-size: 20px;&quot;&gt;Private Network&lt;/font&gt;&lt;/b&gt;" style="text;html=1;align=center;verticalAlign=middle;whiteSpace=wrap;rounded=0;" parent="1" vertex="1">
          <mxGeometry x="-310" y="-1470" width="200" height="30" as="geometry" />
        </mxCell>
        <mxCell id="c14UB3Sm8Ooux1S4nVgL-27" style="edgeStyle=orthogonalEdgeStyle;rounded=0;orthogonalLoop=1;jettySize=auto;html=1;entryX=0;entryY=0.5;entryDx=0;entryDy=0;fontFamily=Helvetica;fontSize=12;fontColor=default;flowAnimation=1;fillColor=#f0a30a;strokeColor=#BD7000;" edge="1" parent="1">
          <mxGeometry relative="1" as="geometry">
            <mxPoint x="-171" y="-885.0526315789471" as="sourcePoint" />
            <mxPoint x="110" y="-1340" as="targetPoint" />
            <Array as="points">
              <mxPoint y="-885" />
              <mxPoint y="-1340" />
            </Array>
          </mxGeometry>
        </mxCell>
        <mxCell id="yQIeMXqNimcgNi17c58K-10" value="" style="sketch=0;points=[[0,0,0],[0.25,0,0],[0.5,0,0],[0.75,0,0],[1,0,0],[0,1,0],[0.25,1,0],[0.5,1,0],[0.75,1,0],[1,1,0],[0,0.25,0],[0,0.5,0],[0,0.75,0],[1,0.25,0],[1,0.5,0],[1,0.75,0]];outlineConnect=0;fontColor=#232F3E;fillColor=#8C4FFF;strokeColor=#ffffff;dashed=0;verticalLabelPosition=bottom;verticalAlign=top;align=center;html=1;fontSize=12;fontStyle=0;aspect=fixed;shape=mxgraph.aws4.resourceIcon;resIcon=mxgraph.aws4.api_gateway;movable=0;" parent="1" vertex="1">
          <mxGeometry x="-249" y="-919" width="78" height="78" as="geometry" />
        </mxCell>
        <mxCell id="c14UB3Sm8Ooux1S4nVgL-2" value="&lt;font style=&quot;font-size: 20px;&quot;&gt;Nautilus - Authorization&lt;/font&gt;" style="rounded=1;whiteSpace=wrap;html=1;movable=0;" vertex="1" parent="1">
          <mxGeometry x="-270" y="-1270" width="120" height="110" as="geometry" />
        </mxCell>
        <mxCell id="c14UB3Sm8Ooux1S4nVgL-4" value="" style="image;sketch=0;aspect=fixed;html=1;points=[];align=center;fontSize=12;image=img/lib/mscae/Docker.svg;movable=0;" vertex="1" parent="1">
          <mxGeometry x="-110" y="-1201" width="50" height="41" as="geometry" />
        </mxCell>
        <mxCell id="c14UB3Sm8Ooux1S4nVgL-17" style="edgeStyle=orthogonalEdgeStyle;rounded=0;orthogonalLoop=1;jettySize=auto;html=1;entryX=1;entryY=0.5;entryDx=0;entryDy=0;fontFamily=Helvetica;fontSize=12;fontColor=default;exitX=-0.011;exitY=0.788;exitDx=0;exitDy=0;exitPerimeter=0;flowAnimation=1;" edge="1" parent="1" source="c14UB3Sm8Ooux1S4nVgL-5" target="c14UB3Sm8Ooux1S4nVgL-2">
          <mxGeometry relative="1" as="geometry" />
        </mxCell>
        <mxCell id="c14UB3Sm8Ooux1S4nVgL-5" value="" style="image;aspect=fixed;html=1;points=[];align=center;fontSize=12;image=img/lib/azure2/databases/Azure_Database_PostgreSQL_Server.svg;movable=0;" vertex="1" parent="1">
          <mxGeometry x="-80" y="-1265" width="48" height="64" as="geometry" />
        </mxCell>
        <mxCell id="c14UB3Sm8Ooux1S4nVgL-13" style="edgeStyle=orthogonalEdgeStyle;rounded=0;orthogonalLoop=1;jettySize=auto;html=1;entryX=0.5;entryY=0;entryDx=0;entryDy=0;entryPerimeter=0;fontFamily=Helvetica;fontSize=12;fontColor=default;flowAnimation=1;fillColor=#f0a30a;strokeColor=#BD7000;" edge="1" parent="1" source="c14UB3Sm8Ooux1S4nVgL-2" target="yQIeMXqNimcgNi17c58K-10">
          <mxGeometry relative="1" as="geometry" />
        </mxCell>
        <mxCell id="c14UB3Sm8Ooux1S4nVgL-14" style="edgeStyle=orthogonalEdgeStyle;rounded=0;orthogonalLoop=1;jettySize=auto;html=1;exitX=1;exitY=0.25;exitDx=0;exitDy=0;entryX=0;entryY=0.361;entryDx=0;entryDy=0;entryPerimeter=0;fontFamily=Helvetica;fontSize=12;fontColor=default;flowAnimation=1;" edge="1" parent="1" source="c14UB3Sm8Ooux1S4nVgL-2" target="c14UB3Sm8Ooux1S4nVgL-5">
          <mxGeometry relative="1" as="geometry" />
        </mxCell>
        <mxCell id="c14UB3Sm8Ooux1S4nVgL-21" value="&lt;font style=&quot;font-size: 20px;&quot;&gt;Twisted Fate - Eureka&lt;/font&gt;" style="rounded=1;whiteSpace=wrap;html=1;dashed=1;strokeColor=default;align=center;verticalAlign=middle;fontFamily=Helvetica;fontSize=12;fontColor=default;fillColor=none;" vertex="1" parent="1">
          <mxGeometry x="522.09" y="-290" width="145.83" height="70" as="geometry" />
        </mxCell>
        <mxCell id="c14UB3Sm8Ooux1S4nVgL-30" style="edgeStyle=orthogonalEdgeStyle;rounded=0;orthogonalLoop=1;jettySize=auto;html=1;exitX=1;exitY=0.5;exitDx=0;exitDy=0;fontFamily=Helvetica;fontSize=12;fontColor=default;flowAnimation=1;" edge="1" parent="1" source="c14UB3Sm8Ooux1S4nVgL-26" target="c14UB3Sm8Ooux1S4nVgL-28">
          <mxGeometry relative="1" as="geometry" />
        </mxCell>
        <mxCell id="c14UB3Sm8Ooux1S4nVgL-26" value="&lt;font style=&quot;font-size: 20px;&quot;&gt;Yorick - User&lt;/font&gt;" style="rounded=1;whiteSpace=wrap;html=1;strokeColor=default;align=center;verticalAlign=middle;fontFamily=Helvetica;fontSize=12;fontColor=default;fillColor=none;" vertex="1" parent="1">
          <mxGeometry x="110" y="-1380" width="180" height="90" as="geometry" />
        </mxCell>
        <mxCell id="c14UB3Sm8Ooux1S4nVgL-28" value="" style="image;aspect=fixed;html=1;points=[];align=center;fontSize=12;image=img/lib/azure2/databases/Azure_Database_PostgreSQL_Server.svg;movable=0;" vertex="1" parent="1">
          <mxGeometry x="370" y="-1367" width="48" height="64" as="geometry" />
        </mxCell>
        <mxCell id="c14UB3Sm8Ooux1S4nVgL-29" value="" style="image;sketch=0;aspect=fixed;html=1;points=[];align=center;fontSize=12;image=img/lib/mscae/Docker.svg;movable=0;" vertex="1" parent="1">
          <mxGeometry x="340" y="-1306" width="50" height="41" as="geometry" />
        </mxCell>
        <mxCell id="c14UB3Sm8Ooux1S4nVgL-31" style="edgeStyle=orthogonalEdgeStyle;rounded=0;orthogonalLoop=1;jettySize=auto;html=1;entryX=1.014;entryY=0.654;entryDx=0;entryDy=0;entryPerimeter=0;fontFamily=Helvetica;fontSize=12;fontColor=default;exitX=-0.004;exitY=0.718;exitDx=0;exitDy=0;exitPerimeter=0;flowAnimation=1;" edge="1" parent="1" source="c14UB3Sm8Ooux1S4nVgL-28" target="c14UB3Sm8Ooux1S4nVgL-26">
          <mxGeometry relative="1" as="geometry" />
        </mxCell>
        <mxCell id="c14UB3Sm8Ooux1S4nVgL-32" value="" style="image;sketch=0;aspect=fixed;html=1;points=[];align=center;fontSize=12;image=img/lib/mscae/Docker.svg;movable=1;" vertex="1" parent="1">
          <mxGeometry x="400" y="-275.5" width="50" height="41" as="geometry" />
        </mxCell>
        <mxCell id="c14UB3Sm8Ooux1S4nVgL-33" style="edgeStyle=orthogonalEdgeStyle;rounded=0;orthogonalLoop=1;jettySize=auto;html=1;entryX=0.999;entryY=0.486;entryDx=0;entryDy=0;entryPerimeter=0;fontFamily=Helvetica;fontSize=12;fontColor=default;flowAnimation=1;" edge="1" parent="1" source="c14UB3Sm8Ooux1S4nVgL-21" target="c14UB3Sm8Ooux1S4nVgL-32">
          <mxGeometry relative="1" as="geometry" />
        </mxCell>
      </root>
    </mxGraphModel>
  </diagram>
</mxfile>
